<svg width="24" height="24" viewBox="0 0 24 24" fill="none" xmlns="http://www.w3.org/2000/svg">
<path d="M12 21.75C17.3848 21.75 21.75 17.3848 21.75 12C21.75 6.61522 17.3848 2.25 12 2.25C6.61522 2.25 2.25 6.61522 2.25 12C2.25 17.3848 6.61522 21.75 12 21.75Z" fill="#D80027"/>
<path d="M7.58584 8.18384L8.42754 10.7737H11.1507L8.94932 12.3771L9.79102 14.9669L7.58584 13.3673L5.38066 14.9669L6.22617 12.3771L4.021 10.7737H6.74414L7.58584 8.18384Z" fill="#FFDA44"/>
<path d="M13.8092 17.3511L13.1655 16.5589L12.2134 16.9283L12.7656 16.0714L12.122 15.2754L13.1084 15.5382L13.6644 14.6813L13.7178 15.702L14.708 15.9648L13.752 16.3304L13.8092 17.3511Z" fill="#FFDA44"/>
<path d="M15.0889 15.0279L15.3935 14.0529L14.5595 13.4625L15.5802 13.4473L15.881 12.4723L16.2124 13.4397L17.2331 13.4282L16.4142 14.0376L16.7418 15.005L15.9077 14.4147L15.0889 15.0279Z" fill="#FFDA44"/>
<path d="M16.814 9.40636L16.3646 10.3242L17.0958 11.0364L16.0865 10.8917L15.6371 11.8058L15.4619 10.8003L14.4488 10.6556L15.3553 10.1795L15.1801 9.17023L15.9113 9.88243L16.814 9.40636Z" fill="#FFDA44"/>
<path d="M13.8359 6.6261L13.7597 7.64299L14.7081 8.02766L13.714 8.27141L13.6417 9.29211L13.1046 8.42376L12.1106 8.66751L12.7695 7.88674L12.2287 7.02219L13.177 7.40686L13.8359 6.6261Z" fill="#FFDA44"/>
</svg>
