<svg width="24" height="24" viewBox="0 0 24 24" fill="none" xmlns="http://www.w3.org/2000/svg">
<path d="M12 21.75C17.3848 21.75 21.75 17.3848 21.75 12C21.75 6.61522 17.3848 2.25 12 2.25C6.61522 2.25 2.25 6.61522 2.25 12C2.25 17.3848 6.61522 21.75 12 21.75Z" fill="#F0F0F0"/>
<path d="M4.26544 6.06396C3.49957 7.06041 2.92208 8.20889 2.58582 9.45655H7.65802L4.26544 6.06396Z" fill="#0052B4"/>
<path d="M21.414 9.45651C21.0777 8.20889 20.5002 7.06041 19.7344 6.06396L16.3419 9.45651H21.414Z" fill="#0052B4"/>
<path d="M2.58582 14.5436C2.92211 15.7912 3.49961 16.9397 4.26544 17.9361L7.65791 14.5436H2.58582Z" fill="#0052B4"/>
<path d="M17.9359 4.26554C16.9395 3.49967 15.7911 2.92218 14.5434 2.58588V7.65805L17.9359 4.26554Z" fill="#0052B4"/>
<path d="M6.0639 19.7345C7.06035 20.5004 8.20883 21.0779 9.45645 21.4142V16.342L6.0639 19.7345Z" fill="#0052B4"/>
<path d="M9.45641 2.58588C8.20879 2.92218 7.06031 3.49967 6.0639 4.2655L9.45641 7.65801V2.58588Z" fill="#0052B4"/>
<path d="M14.5435 21.4142C15.7911 21.0779 16.9396 20.5004 17.936 19.7345L14.5435 16.342V21.4142Z" fill="#0052B4"/>
<path d="M16.3419 14.5436L19.7344 17.9361C20.5002 16.9397 21.0777 15.7912 21.414 14.5436H16.3419Z" fill="#0052B4"/>
<path d="M21.6675 10.7283H13.2718H13.2718V2.33253C12.8554 2.27834 12.431 2.25 12 2.25C11.5689 2.25 11.1446 2.27834 10.7283 2.33253V10.7282V10.7282H2.33253C2.27834 11.1446 2.25 11.569 2.25 12C2.25 12.4311 2.27834 12.8554 2.33253 13.2717H10.7282H10.7282V21.6675C11.1446 21.7217 11.5689 21.75 12 21.75C12.431 21.75 12.8554 21.7217 13.2717 21.6675V13.2718V13.2718H21.6675C21.7217 12.8554 21.75 12.4311 21.75 12C21.75 11.569 21.7217 11.1446 21.6675 10.7283Z" fill="#D80027"/>
<path d="M14.5435 14.5436L18.8942 18.8943C19.0943 18.6943 19.2852 18.4852 19.4674 18.2684L15.7425 14.5435H14.5435V14.5436Z" fill="#D80027"/>
<path d="M9.45647 14.5435H9.4564L5.10565 18.8943C5.30568 19.0944 5.51481 19.2853 5.73159 19.4674L9.45647 15.7424V14.5435Z" fill="#D80027"/>
<path d="M9.45643 9.45655V9.45647L5.10565 5.10565C4.90555 5.30568 4.71466 5.51481 4.53253 5.73159L8.25745 9.45651H9.45643V9.45655Z" fill="#D80027"/>
<path d="M14.5435 9.45659L18.8943 5.10573C18.6943 4.90563 18.4851 4.71474 18.2683 4.53265L14.5435 8.25757V9.45659Z" fill="#D80027"/>
</svg>
