<svg width="20" height="20" viewBox="0 0 20 20" fill="none" xmlns="http://www.w3.org/2000/svg">
<path d="M9.46867 12.3396C10.3073 11.7826 10.9442 10.9704 11.2853 10.0232C11.6264 9.07605 11.6535 8.04422 11.3626 7.08045C11.0716 6.11668 10.4782 5.27218 9.66996 4.67192C8.86176 4.07167 7.88178 3.74756 6.87506 3.74756C5.86834 3.74756 4.88836 4.07167 4.08016 4.67192C3.27196 5.27218 2.67848 6.11668 2.38756 7.08045C2.09663 8.04422 2.12372 9.07605 2.46481 10.0232C2.8059 10.9704 3.44286 11.7826 4.28144 12.3396C2.85191 12.867 1.6164 13.8163 0.738665 15.0618C0.672768 15.1554 0.633845 15.2653 0.626142 15.3795C0.618439 15.4937 0.642253 15.6079 0.694986 15.7095C0.747718 15.8111 0.827343 15.8963 0.925174 15.9557C1.023 16.0152 1.13528 16.0466 1.24976 16.0466L12.5001 16.0462C12.6146 16.0462 12.7269 16.0147 12.8247 15.9553C12.9225 15.8958 13.0021 15.8106 13.0548 15.709C13.1076 15.6074 13.1314 15.4933 13.1236 15.379C13.1159 15.2648 13.077 15.1549 13.0111 15.0613C12.1334 13.8161 10.898 12.8669 9.46867 12.3396Z" fill="#141414"/>
<path d="M19.38 15.0613C18.5023 13.8161 17.2669 12.8669 15.8376 12.3397C16.7669 11.721 17.4449 10.791 17.7496 9.71704C18.0544 8.64304 17.9658 7.49554 17.4998 6.48104C17.0338 5.46654 16.2211 4.65165 15.2078 4.18301C14.1945 3.71437 13.0473 3.62275 11.9725 3.92464C11.8749 3.95208 11.7855 4.00285 11.7119 4.07255C11.6383 4.14226 11.5828 4.22881 11.5501 4.32476C11.5174 4.4207 11.5085 4.52316 11.5243 4.62329C11.54 4.72342 11.5798 4.81822 11.6404 4.89953C12.3469 5.84859 12.7531 6.98746 12.8065 8.16942C12.86 9.35138 12.5584 10.5223 11.9404 11.5313C11.8588 11.6643 11.83 11.8231 11.8595 11.9764C11.8891 12.1296 11.975 12.2663 12.1002 12.3595C12.3372 12.5358 12.5651 12.7239 12.7833 12.9231C12.7946 12.9354 12.8059 12.9475 12.8183 12.9591C13.6526 13.7303 14.3286 14.6565 14.8089 15.686C14.8592 15.7938 14.9392 15.885 15.0395 15.9488C15.1399 16.0127 15.2563 16.0466 15.3753 16.0466L18.8691 16.0462C18.9835 16.0462 19.0958 16.0147 19.1936 15.9553C19.2914 15.8958 19.371 15.8106 19.4238 15.709C19.4765 15.6074 19.5003 15.4933 19.4926 15.379C19.4848 15.2648 19.4459 15.1549 19.38 15.0613L19.38 15.0613Z" fill="#141414"/>
</svg>
