<svg width="20" height="20" viewBox="0 0 20 20" fill="none" xmlns="http://www.w3.org/2000/svg">
<path fill-rule="evenodd" clip-rule="evenodd" d="M14.375 3.125C14.375 2.77982 14.0952 2.5 13.75 2.5L6.25 2.5C5.90482 2.5 5.625 2.77982 5.625 3.125L5.625 16.875C5.625 17.2202 5.90482 17.5 6.25 17.5H13.75C14.0952 17.5 14.375 17.2202 14.375 16.875V3.125ZM13.75 1.25C14.7855 1.25 15.625 2.08947 15.625 3.125L15.625 16.875C15.625 17.9105 14.7855 18.75 13.75 18.75H6.25C5.21447 18.75 4.375 17.9105 4.375 16.875L4.375 3.125C4.375 2.08947 5.21447 1.25 6.25 1.25L13.75 1.25Z" fill="white"/>
<path d="M10 16.25C10.5178 16.25 10.9375 15.8303 10.9375 15.3125C10.9375 14.7947 10.5178 14.375 10 14.375C9.48223 14.375 9.0625 14.7947 9.0625 15.3125C9.0625 15.8303 9.48223 16.25 10 16.25Z" fill="white"/>
</svg>
