<svg width="20" height="20" viewBox="0 0 20 20" fill="none" xmlns="http://www.w3.org/2000/svg">
<path fill-rule="evenodd" clip-rule="evenodd" d="M4.37502 4.375C4.20925 4.375 4.05028 4.44085 3.93307 4.55806C3.81586 4.67527 3.75002 4.83424 3.75002 5C3.75002 5.16576 3.81586 5.32473 3.93307 5.44194C4.05028 5.55915 4.20926 5.625 4.37502 5.625H16.875C17.2065 5.625 17.5245 5.7567 17.7589 5.99112C17.9933 6.22554 18.125 6.54348 18.125 6.875V15.625C18.125 15.9565 17.9933 16.2745 17.7589 16.5089C17.5245 16.7433 17.2065 16.875 16.875 16.875H4.37502C3.87773 16.875 3.40082 16.6775 3.04919 16.3258C2.69756 15.9742 2.50002 15.4973 2.50002 15V5C2.50002 4.50272 2.69756 4.02581 3.04919 3.67417C3.40082 3.32254 3.87773 3.125 4.37502 3.125H15C15.3452 3.125 15.625 3.40482 15.625 3.75C15.625 4.09518 15.3452 4.375 15 4.375H4.37502ZM3.75002 6.76777V15C3.75002 15.1658 3.81586 15.3247 3.93307 15.4419C4.05028 15.5592 4.20926 15.625 4.37502 15.625H16.875V6.875H4.37502C4.16005 6.875 3.94889 6.83809 3.75002 6.76777Z" fill="white"/>
<path d="M14.0625 12.1875C14.5803 12.1875 15 11.7678 15 11.25C15 10.7322 14.5803 10.3125 14.0625 10.3125C13.5447 10.3125 13.125 10.7322 13.125 11.25C13.125 11.7678 13.5447 12.1875 14.0625 12.1875Z" fill="white"/>
</svg>
