<svg width="24" height="24" viewBox="0 0 24 24" fill="none" xmlns="http://www.w3.org/2000/svg">
<path d="M12 21.75C17.3848 21.75 21.75 17.3848 21.75 12C21.75 6.61522 17.3848 2.25 12 2.25C6.61522 2.25 2.25 6.61522 2.25 12C2.25 17.3848 6.61522 21.75 12 21.75Z" fill="#F0F0F0"/>
<path d="M21.1436 8.60867H2.85644C2.4645 9.66491 2.25 10.8073 2.25 12C2.25 13.1926 2.4645 14.335 2.85644 15.3912H21.1436C21.5355 14.335 21.75 13.1926 21.75 12C21.75 10.8073 21.5355 9.66491 21.1436 8.60867Z" fill="#0052B4"/>
<path d="M11.9999 2.25C9.04482 2.25 6.39697 3.56488 4.60895 5.64129H19.3909C17.6029 3.56488 14.9551 2.25 11.9999 2.25Z" fill="#D80027"/>
<path d="M19.3909 18.3586H4.60895C6.39697 20.4351 9.04482 21.7499 11.9999 21.7499C14.9551 21.7499 17.6029 20.4351 19.3909 18.3586Z" fill="#D80027"/>
</svg>
